<svg xmlns="http://www.w3.org/2000/svg" width="512" height="512" viewBox="0 0 512 512" role="img" aria-label="Coffee and beverages">
  <defs>
    <linearGradient id="g" x1="96" y1="80" x2="396" y2="392" gradientUnits="userSpaceOnUse"><stop stop-color="#d92365"/><stop offset="0.56" stop-color="#bf1b75"/><stop offset="1" stop-color="#710a73"/></linearGradient>
    <linearGradient id="shine" x1="168" y1="120" x2="338" y2="324" gradientUnits="userSpaceOnUse"><stop stop-color="#fff" stop-opacity="0.85"/><stop offset="1" stop-color="#fff" stop-opacity="0.14"/></linearGradient>
    <filter id="shadow" x="40" y="44" width="432" height="432" filterUnits="userSpaceOnUse"><feDropShadow dx="16" dy="22" stdDeviation="18" flood-color="#1e1a24" flood-opacity="0.18"/></filter>
  </defs>
  <ellipse cx="256" cy="398" rx="142" ry="34" fill="#710a73" opacity="0.10"/>
  <rect x="94" y="76" width="324" height="324" rx="92" fill="#fff"/>
  <circle cx="346" cy="138" r="96" fill="#d92365" opacity="0.10"/>
  <circle cx="152" cy="328" r="104" fill="#710a73" opacity="0.08"/>
  <g filter="url(#shadow)">
    <rect x="136" y="126" width="240" height="240" rx="70" fill="url(#g)"/>
    <path d="M174 150c40-24 108-28 160 8 20 14 28 38 22 60-44-36-118-34-178 4-18-20-20-52-4-72Z" fill="url(#shine)" opacity="0.74"/>
  </g>
  <path d="M178 200h124v78c0 36-28 65-62 65s-62-29-62-65v-78Z" fill="#fff"/><path d="M298 220h16c26 0 42 17 42 39s-16 39-42 39h-16" fill="none" stroke="#fff" stroke-width="20"/><path d="M204 156c-16 16-14 31 0 46M256 148c-16 19-14 34 0 52" stroke="#fff" stroke-width="12" stroke-linecap="round"/><path d="M168 360h166" stroke="#fff" stroke-width="18" stroke-linecap="round"/>
</svg>